<svg xmlns="http://www.w3.org/2000/svg" width="216" height="36" fill="none"><g clip-path="url(#a)"><path fill="#B0E1F0" d="M14.333 19.369h-.32v4.867h.32zm-8.283 0h-.32v4.867h.32zm8.283-6.419h-.32v4.868h.32zm-8.283 0h-.32v4.868h.32zm-.32-1.558h.32V8.627h7.963v2.765h.32V8.311H5.73zm13.49 12.844h.32l-.009-4.867h-.32l.01 4.867Zm-4.886 1.557h-.32v2.739H6.05v-2.739h-.32v3.059h8.603v-3.059Zm-13.309 0h-.32v4.794h.32zm0-20.823V2.154h15.654V4.97H17V1.833H.704V4.97zM17 28.784h2.55l-.004-3.004h-.32l.004 2.683h-2.55v2.184H17zM1.025 19.369h-.32v4.867h.32zM16.68 32.218v2.67H1.024v-2.67h-.32v2.99H17v-2.99zM1.025 12.95h-.32v4.868h.32zm18.187 4.864h.316l-.01-4.863h-.32zM16.68 6.526v2.115h2.513l.005 2.752h.32l-.009-3.072H17V6.526zm-15.655 0h-.32v4.867h.32zm12.889 6.425h-.32v4.867h.32zm-6.959 0h-.32v4.867h.32zm0 6.418h-.32v4.867h.32zm6.959 0h-.32v4.867h.32zm4.428 4.867h.32l-.008-4.867h-.321l.01 4.867ZM1.941 25.794h-.32v4.793h.32z"/><path fill="#B0E1F0" d="M13.914 25.794h-.32v2.147h-6.64v-2.147h-.32v2.467h7.28zm-7.28-14.401h.32V9.521h6.64v1.872h.32V9.2h-7.28zm11.698 6.421h.32l-.008-4.863h-.32zM1.941 4.969v-1.91h13.85v1.91h.321v-2.23H1.621v2.23zM16.1 27.923h2.568V25.78h-.32v1.827h-2.57v3.04h.321zm-.308-21.397v3.008h2.527l.005 1.86h.32l-.004-2.18h-2.528V6.526zm-.014 25.692v1.754H1.941v-1.754h-.32v2.074h14.478v-2.074zM1.941 6.526h-.32v4.867h.32zm0 6.425h-.32v4.867h.32zm0 6.418h-.32v4.867h.32zm24.253-6.418h-.32v4.867h.32zM22.06 6.526h-.32v4.867h.32zm4.134 12.843h-.32v4.867h.32zm-4.134 6.425h-.32v4.844h.32zm4.134-19.268h-.32v4.867h.32zm-4.134 6.425h-.32v4.867h.32zm0-7.982v-1.91h3.814v1.91h.32v-2.23H21.74v2.23zm3.814 27.249v1.754H22.06v-1.754h-.32v2.074h4.455v-2.074h-.32ZM22.06 19.369h-.32v4.867h.32zm4.134 6.425h-.32v4.853h.32zM21.17 6.526h-.32v4.867h.32zm5.92 0h-.321v4.867h.32zm0 6.424h-.321v4.868h.32zm-5.92 12.843h-.32v4.845h.32zm5.92-6.424h-.321v4.867h.32z"/><path fill="#B0E1F0" d="M21.17 4.97V2.154h5.6V4.97h.32V1.833h-6.24V4.97zm5.6 27.248v2.67h-5.6v-2.67h-.32v2.99h6.24v-2.99zm-5.6-19.268h-.32v4.868h.32v-4.867Zm5.92 12.843h-.321v4.854h.32zm-5.92-6.424h-.32v4.867h.32zm18.55 4.867v-3.059h-2.574V19.37h-.32v2.124h2.573v2.743zm-5.975-4.867h-.32v4.867h.32zm12.537 2.124V19.37h-.321v1.808h-2.51v3.059h.321v-2.743h2.51Zm-12.532-3.68v-2.729h3.077v2.73h.32v-3.046h-3.722v3.045zm15.965 1.556h-.321v4.867h.32zm4.127 0h-.32v4.867h.32zm-24.25 6.411h-.32v4.844h.32zm24.25-19.254h-.32v4.867h.32zM45.96 17.813h.321v-2.729h3.114v2.73h.32v-3.046H45.96zm-7.508-2.376 5.165-.032v-2.454h-.32v2.138l-4.525.023v-2.161h-.32zm5.321 10.357h-.32v1.803H39.72v-1.803h-.32v2.124h4.372v-2.124Zm10.069-12.843h-.32v4.867h.32zm-8.119-7.982v-1.91h7.797v1.91h.32v-2.23h-8.438v2.23h.32Zm3.959 20.825h-.288l.014 4.83h.288zM29.592 4.969v-1.91h6.346v1.91h.32v-2.23h-6.987v2.23zm24.249 20.825h-.352l.014 4.853h.352zm-20.417 6.424v1.754h-3.832v-1.754h-.32v2.074h4.477v-2.074zm20.096 0v1.754h-3.805v-1.754h-.321v2.074h4.446v-2.074zM35.94 6.526v3.018h2.514v1.85h.32v-2.17h-2.513V6.525h-.32Zm9.463 2.67h-2.106v2.197h.32V9.516h2.107v-2.99h-.32zm-15.811-2.67h-.32v4.867h.32zm4.157 19.254h-.32v4.867h.32zm-4.157-12.829h-.32v4.867h.32zm0 6.418h-.32v4.867h.32zm5.043 0h-.32v4.867h.32z"/><path fill="#B0E1F0" d="M47.172 22.4v-3.031h-.32v2.71h-2.5v2.157h.32V22.4zm-8.363 1.836v-2.157h-2.518v-2.71h-.32v3.03h2.518v1.837zM54.745 12.95h-.32v4.868h.32zm-5.922 6.419h-.32v4.867h.32zM28.69 25.78h-.32v4.844h.32zm15.98.013h-.32V28.5h-5.541v-2.706h-.32v3.027h6.18v-3.027ZM54.745 6.526h-.32v4.867h.32zm0 12.843h-.32v4.867h.32zm-7.895-1.557h.32v-1.823h1.333v1.823h.32v-2.143H46.85zm-7.506-4.862v3.426h4.4V12.95h-.32v3.109h-3.76v-3.11h-.32Zm-4.709 4.862v-1.823h1.337v1.823h.32v-2.143h-1.977v2.143zm14.189 7.981h-.348l.013 4.854h.353zM46.007 4.97V2.154h8.415V4.97h.321V1.833h-9.057V4.97h.32Zm8.706 20.823h-.288l.013 4.854h.293zM28.69 4.97V2.154h8.132V4.97h.32V1.833H28.37V4.97zm5.623 27.248v2.67H28.69v-2.67h-.32v2.99h6.263v-2.99zm20.11 0v2.67h-5.6v-2.67h-.32v2.99h6.24v-2.99zM28.69 12.95h-.32v4.868h.32zm5.948 12.83h-.32v4.867h.32zm2.185-19.254v2.13h2.523v2.737h.32V8.335h-2.522V6.526zm-8.133 0h-.32v4.867h.32zm16.998 1.809h-2.262v3.058h.32V8.655h2.262V6.526h-.32zM28.69 19.369h-.32v4.867h.32zM73.663 8.28H61.096v3.113h.32V8.6h12.569V6.526h-.32V8.28Zm-12.568 4.671v3.013h7.532v1.85h.32v-2.17h-7.532V12.95h-.32Zm7.532 8.217h-7.532v3.068h.32v-2.747h7.532v-2.12h-.32v1.8ZM57.24 25.794h-.29l.015 4.853h.293zm.031-19.268h-.32v4.867h.32zm16.401 25.692-.009 1.754H57.271v-1.754h-.32v2.074h17.033l.009-2.074h-.32ZM57.271 12.951h-.32v4.867h.32zm0-7.982v-1.91h16.392v1.91h.32v-2.23H56.952v2.23zm0 14.4h-.32v4.867h.32zM73.98 30.647l-.005-2.143-12.56-.032v-2.678h-.32v2.999l12.587.027.009 1.827h.288Z"/><path fill="#B0E1F0" d="M74.587 9.182H61.963v2.211h.32v-1.89h12.624V6.525h-.32zM61.963 12.95v2.116h7.578v2.748h.32v-3.068h-7.577V12.95zm-5.595-6.424h-.32v4.867h.32zm-.001 19.267h-.352l.014 4.854h.352zm13.172-3.732h-7.583l.01 2.175h.32l-.004-1.854h7.577v-3.013h-.32zm5.368 8.586-.01-3.031-12.596-.032-.004-1.79h-.32l.004 2.11 12.623.032.01 2.71zM56.368 4.97V2.154h18.219V4.97h.32V1.833h-18.86V4.97zm0 7.98h-.32v4.868h.32zm18.228 19.268-.01 2.67H56.369v-2.67h-.32v2.99h18.86l.008-2.99zM56.368 19.369h-.32v4.867h.32zM99.135 6.526h-.32v4.867h.32zm-7.495 17.71v-2.157h-2.541v-2.71h-.32v3.026h2.54v1.841zm-4.168 0v-3.045h-2.55V19.37H84.6v2.143h2.55v2.724h.32Zm7.328-4.867h-.321v4.867h.32v-4.867Zm4.335-6.418h-.32v4.867h.32zm-17.601 6.418h-.32v4.867h.32zm-4.168 6.425h-.32l.013 4.853h.32zm21.769-6.425h-.32v4.867h.32zM94.8 25.794h-.32v2.93h-2.84v-2.93h-.32v3.25h3.48zm-13.266-7.981V15.06h3.068v2.752h.32V14.74h-3.709v3.073h.32Zm4.729-4.862v3.013h2.514v1.85h.32v-2.17h-2.513V12.95h-.321Zm8.537 0h-.321v4.867h.32v-4.867Zm-4.787 17.696-.018-3.059h-2.523v-1.794h-.32v2.115h2.523l.018 2.738zM77.366 4.969v-1.91h6.415v1.91h.32v-2.23h-7.055v2.23zm21.769 20.825h-.32l.018 4.853h.32zM94.8 4.969v-1.91h4.015v1.91h.32v-2.23H94.48v2.23zm0 1.557h-.321v4.867h.32V6.526Zm4.013 25.692v1.754h-8.819v-1.754h-.32v2.074h9.46v-2.074zm-17.601 0v1.754h-3.846v-1.754h-.32v2.074h4.487v-2.074h-.32Zm2.57-25.692v2.949h2.481v1.918h.32V9.154h-2.48V6.526zM81.5 25.794h-.32l.014 4.853h.32zM77.366 6.526h-.32v4.867h.32zm0 6.425h-.32v4.867h.32zm0 6.418h-.32v4.867h.32z"/><path fill="#B0E1F0" d="M92.525 24.236v-3.068h-2.569v-1.8h-.32v2.12h2.569v2.748zm7.471-17.71h-.32v4.867h.32zm-5.402 12.843h-.321v4.867h.32zm-12.182 0h-.32v4.867h.32zm17.584-6.419h-.32v4.868h.32zm-13.43 11.286V22.01h-2.578v-2.642h-.32v2.962h2.577v1.905h.32Zm13.43-4.867h-.32v4.867h.32zm-23.533 6.424h-.32l.018 4.854h.32zm5.949-7.98v-1.85h1.259v1.85h.32v-2.17h-1.9v2.17h.32Zm12.182-4.863h-.321v4.868h.32zm0 12.843h-.32v2.73h-1.75v-2.73h-.32v3.05h2.39zM87.14 12.95v2.126h2.496v2.738h.32v-3.06h-2.495v-1.803h-.32Zm7.454-7.98V2.154h5.082V4.97h.32V1.833h-5.723V4.97h.32Zm-18.131 0V2.154h8.127V4.97h.32V1.833h-8.767V4.97zm23.533 20.823h-.32l.018 4.854h.321zM82.09 32.218v2.67h-5.627v-2.67h-.32v2.99h6.268v-2.99h-.32Zm7.011-1.571-.018-2.138h-2.514v-2.716h-.32v3.036h2.513l.019 1.818zm10.574 1.571v2.67H89.08v-2.67h-.32v2.99h11.236v-2.99h-.32ZM76.463 6.526h-.32v4.867h.32zm18.131 0h-.321v4.867h.32V6.526Zm-10.004 0V8.61h2.55v2.784h.32v-3.1h-2.55V6.526zm-2.208 19.267h-.32l.013 4.854h.32zM76.463 12.95h-.32v4.868h.32zm0 6.419h-.32v4.867h.32zm42.817 0h-.321v4.867h.321zm-12.912-6.418v3.031h12.591v1.832h.321v-2.152h-12.592V12.95h-.32Zm12.587-4.639h-12.587v3.081h.32v-2.76h12.587V6.525h-.32zM102.488 28.82h13.169l-.005-3.026h-.321l.005 2.706h-13.168l.013 2.147h.321zm13.155-7.638h-13.155l.005-1.813h-.321l-.004 2.129h13.154l.005 2.738h.32zm3.637 4.612h-.321l.014 4.853h.321zm-.322 6.424v1.754h-16.47v-1.754h-.32v2.074h17.11v-2.074zM102.531 4.969l.005-1.91h16.419v1.91h.32v-2.23h-17.06l-.005 2.23zm-.34 6.424h.325l.009-4.867h-.32zm.307 6.421.014-4.863h-.32l-.014 4.863zm17.668 1.555h-.32v4.867h.32z"/><path fill="#B0E1F0" d="M107.221 12.95v2.13h12.624v2.734h.32v-3.055h-12.623v-1.808h-.321Zm7.639 11.286v-2.138h-13.214v-2.73h-.321v3.05h13.215v1.818zm-13.214 5.605h13.214v-4.048h-.32v3.727h-13.215l.014 1.127h.321zm18.199-20.623h-12.624v2.175h.321V9.54h12.623V6.526h-.32zM101.646 4.97V2.154h18.2V4.97h.321V1.833h-18.842V4.97zm18.2 27.248v2.67h-18.2v-2.67h-.321v2.99h18.842v-2.99zm-18.2-19.268h-.321v4.868h.321v-4.867Zm0-6.424h-.321v4.867h.321zm18.52 19.267h-.32l.013 4.854h.321zm24.898-12.842h-.32v4.867h.32zm-9.812 0h-.321v4.867h.321zm-.321-1.557h.321V9.507h9.491v1.887h.321V9.187h-10.133zm.321 7.975h-.321v4.867h.321zm-2.518 11.278-.013-3.054h-2.482v-1.8h-.321v2.12h2.482l.014 2.734zm-2.495-19.254V9.42h2.518V6.526h-.32V9.1h-2.519v2.294zm14.825 14.401h-.321v1.881h-9.491v-1.881h-.321v2.202h10.133zm4.049-1.558h.32l.023-4.867h-.32zm-4.049-4.867h-.32v4.867h.32zm-12.306-14.4v-1.91h13.864v1.91h.32v-2.23h-14.505v2.23zm14.2 22.926 2.463-.014.009-2.087h-.32l-.009 1.767-2.464.014.014 3.072h.32zm2.181-10.081h.321l.023-4.863h-.321zm-2.503 14.404v1.776h-13.915v-1.776h-.321v2.097h14.556v-2.097zm-.015-25.692v2.981h2.555l-.005 1.886h.321l.009-2.207h-2.559v-2.66zm-16.382 6.425h-.321v4.867h.321zm0 6.418h-.321v4.867h.321z"/><path fill="#B0E1F0" d="M134.038 11.393h.32V8.604h10.861v2.789h.32V8.284h-11.501zm11.5 1.557h-.32v4.868h.32zm-11.18 0h-.32v4.868h.32zm11.181 12.843h-.32v2.729l-10.861-.028v-2.701h-.32v3.022l11.501.027v-3.05Zm-16.205-14.4V8.53h2.752V6.526h-.321V8.21h-2.751v3.182zm5.024 7.975h-.32v4.867h.32zm-2.515 11.278-.013-2.147h-2.496v-2.706h-.32v3.026h2.495l.014 1.827zm18.507-11.278h-.32v4.867h.32zm-2.826-12.842v2.078h2.504v2.789h.321v-3.11h-2.505V6.527h-.32ZM132.088 4.97v-2.8h15.439v2.8h.32V1.851h-16.08v3.118h.321Zm15.756 23.85h2.505v-3.027h-.321v2.706h-2.504l.014 2.147h.32l-.014-1.827Zm-.318 3.397v2.67H131.83v-2.67h-.321v2.99h16.337v-2.99zm-18.192-12.849h-.32v4.867h.32zm21.016-6.418h-.32v4.868h.32zm-21.016 0h-.32v4.868h.32zm16.204 6.418h-.32v4.867h.32zm21.586 4.868v-2.157h-2.541v-2.71h-.32v3.026h2.541v1.841zm-4.167 0v-3.045h-2.551V19.37h-.32v2.143h2.55v2.724h.321Zm-5.942-4.867h-.32v4.867h.32zm17.605-6.418h-.32v4.867h.32zm0-6.425h-.32v4.867h.32zm-4.336 12.843h-.32v4.867h.32zm4.336 0h-.32v4.867h.32zm-21.772 6.425h-.32l.014 4.853h.32zm17.437 0h-.321v2.93h-2.839v-2.93h-.32v3.25h3.48zm-.001-12.843h-.32v4.867h.32zm-13.269 4.862V15.06h3.073v2.752h.32V14.74h-3.713v3.073zm4.73-4.862v3.013h2.518v1.85h.32v-2.17h-2.518V12.95h-.32Zm3.749 17.696-.014-3.059h-2.523v-1.794h-.32v2.115h2.523l.013 2.738zm4.79-25.678v-1.91h4.016v1.91h.32v-2.23h-4.656v2.23zm0 1.557h-.32v4.867h.32zm-17.436-1.557v-1.91h6.42v1.91h.32v-2.23h-7.06v2.23zm21.45 27.249v1.754h-8.819v-1.754h-.32v2.074h9.459v-2.074zm-17.604 0v1.754h-3.846v-1.754h-.32v2.074h4.487v-2.074zm17.926-6.424h-.32l.014 4.853h.32zM152.848 6.526h-.32v4.867h.32zm6.422 0v2.949h2.477v1.918h.32V9.154h-2.477V6.526zm-6.422 12.843h-.32v4.867h.32zm4.167 6.425h-.32l.014 4.853h.32zm-4.167-12.843h-.32v4.867h.32z"/><path fill="#B0E1F0" d="M168.015 24.236v-3.068h-2.569v-1.8h-.325v2.12h2.573v2.748zm7.47-17.71h-.32v4.867h.32zm-17.584 11.287v-1.85h1.259v1.85h.32v-2.17h-1.9v2.17zm0 1.556h-.321v4.867h.321zm17.584-6.419h-.32v4.868h.32v-4.867Zm-5.399 6.419h-.321v4.867h.321zm-8.028 4.867V22.01h-2.578v-2.642h-.32v2.962h2.577v1.905zm8.028-11.286h-.321v4.868h.321v-4.867Zm-18.134 12.843h-.321l.014 4.854h.321zm23.533-6.424h-.32v4.867h.32zm-.32 12.849v2.67H164.57v-2.67h-.321v2.99h11.236v-2.99zm-5.083-6.425h-.32v2.73h-1.749v-2.73h-.321v3.05h2.39zm-7.453-12.843v2.126h2.491v2.738h.325v-3.06h-2.496v-1.803h-.32Zm7.457-6.424h-.321v4.867h.321zm5.399 19.267h-.32l.013 4.854h.321zm-17.906 6.425v2.67h-5.627v-2.67h-.321v2.99h6.269v-2.99zm7.006-1.571-.013-2.138h-2.514v-2.716h-.321v3.036h2.514l.014 1.818zM151.952 4.97V2.154h8.122V4.97h.321V1.833h-8.764V4.97zm18.134 0V2.154h5.082V4.97h.321V1.833h-5.724V4.97zm-10.011 1.556V8.61h2.555v2.784h.32v-3.1h-2.555V6.526zm-8.123 0h-.321v4.867h.321zm0 6.424h-.321v4.868h.321zm0 6.419h-.321v4.867h.321zm5.949 6.424h-.321l.014 4.854h.32zm32.697-1.556v-3.054h-8.809v3.054h.32v-2.733h8.168v2.733zm4.142-11.286h-.321v4.867h.321zm-2.8-6.425v3.018h2.478v1.85h.32v-2.17h-2.477V6.525zm-9.19 4.867h.321V9.534h5.874v1.859h.32v-2.18h-6.515zm6.515 1.558h-.32v3.846h-5.874v-3.846h-.321v4.167h6.515V12.95Zm5.469 6.418h-.321v4.867h.321zm-16.716 6.425h-.321l.014 4.853h.321zm0-14.401v-.105l1.772-.037V6.526h-.321v4.41l-1.772.036v.421zm16.716 14.401h-.321l.014 4.853h.32zm-12.943 6.424v1.754h-3.773v-1.754h-.321v2.074h4.414v-2.074zm-2.002-27.249v-1.91h12.152v1.91h.321v-2.23h-12.793v2.23zm14.624 27.249v1.754h-3.814v-1.754h-.32v2.074h4.455v-2.074zm-16.395-19.267h-.321v4.867h.321zm12.581 12.843h-.32l.018 4.853h.321zm-12.581-6.425h-.321v4.867h.321zm4.091 6.425h-.32l.018 4.853h.32z"/><path fill="#B0E1F0" d="M189.604 12.95h-.321v3.678h-7.11V12.95h-.321v3.997h7.752zm3.21-6.424v2.202h2.5v2.665h.32V8.408h-2.5V6.526zm-10.962 4.868h.321V8.652h7.11v2.742h.321V8.336h-7.752zm13.781 1.556h-.321v4.868h.321zm-18.524-1.557v-.655h2.284V6.527h-.32v3.892h-2.285v.975zm0 14.4h-.321l.014 4.854h.32zm18.524-6.424h-.321v4.867h.321zm-5.897 2.688-7.028.019v2.16h.32v-1.84l6.387-.014v1.855h.321zm-12.627-2.688h-.321v4.867h.321zm5.599 12.849v2.67h-5.599v-2.67h-.321v2.99h6.241v-2.99zm12.606 0v2.67h-5.577v-2.67h-.32v2.99h6.217v-2.99zM179.393 4.97V2.154h13.42V4.97h.321V1.833h-14.061V4.97zm16.24 20.823h-.321l.018 4.854h.321zm-12.605 0h-.32l.018 4.854h.32zm6.709 0h-.32l.018 4.854h.32zM177.109 12.95h-.321v4.868h.321zm25.192.001h-.32v4.867h.32zm0-6.425h-.32v4.867h.32zm-4.15 0h-.32v4.867h.32zm4.15 12.843h-.32v4.867h.32zm-4.15 6.425h-.32l.018 4.853h.32zm0-12.843h-.32v4.867h.32zm16.406 19.267v1.754h-16.406v-1.754h-.32v2.074h17.046v-2.074zM198.151 4.969V3.064l3.832.05V4.97h.321V2.8l-4.473-.06v2.23zm0 14.4h-.32v4.867h.32zm16.737 11.278-.013-2.106-12.574.055v-2.802h-.32v3.122l12.573-.055.014 1.786zM203.209 6.526h-.32v4.867h.32zm-5.938 0h-.321v4.867h.321zm5.938 6.424h-.32v4.868h.32zm0 6.419h-.32v4.867h.32zm-5.938 6.424h-.321l.014 4.854h.32z"/><path fill="#B0E1F0" d="M197.271 4.97V2.154l5.618.018V4.97h.32V1.852l-6.259-.019V4.97zm18.182 27.248v2.67h-18.182v-2.67h-.321v2.99h18.823v-2.99zm.338-1.571-.018-2.99-12.564.014v-1.878h-.32v2.203l12.564-.019.018 2.67zm-18.52-11.278h-.321v4.867h.321zm0-6.419h-.321v4.868h.321zm-75.456 17.688V2.154h5.6v28.484h.32V1.833h-6.24v28.805zm5.6 1.58v2.67h-5.6v-2.67h-.32v2.99h6.24v-2.99z"/><path fill="#B0E1F0" d="M122.698 30.637V3.059h3.819v27.578h.32V2.739h-4.46v27.898zm3.819 1.581v1.754h-3.819v-1.754h-.321v2.074h4.46v-2.074z"/><path fill="#B0E1F0" d="M125.873.042h-5.018v30.604h5.018zM5.033 6.527H.001v4.867h5.032zm12.607 6.424h-5.037v4.868h5.037v-4.867Zm0-6.424h-5.037v4.867h5.037z"/><path fill="#B0E1F0" fill-rule="evenodd" d="M15.198 4.97V.042L.001 0v4.97z" clip-rule="evenodd"/><path fill="#B0E1F0" d="M17.64 19.37h-5.037v4.866h5.037zM5.033 12.951H.001v4.868h5.032v-4.867Z"/><path fill="#B0E1F0" fill-rule="evenodd" d="M15.198 30.647v-4.853H.001v4.812z" clip-rule="evenodd"/><path fill="#B0E1F0" d="M5.033 19.37H.001v4.866h5.032zm20.198-6.42h-5.05v4.867h5.05zm0-6.424h-5.05v4.867h5.05zm0 19.267h-5.05v4.854h5.05zm0-6.424h-5.05v4.867h5.05zm0-19.327h-5.05v4.927h5.05zM52.87 6.526H42.849v4.867h10.023V6.526Zm-.003 6.424h-4.922v4.867h4.922zm0 6.419h-4.922v4.867h4.922zm0 6.424h-4.922v4.854h4.922zM45.26 12.95h-9.917v4.867h9.918zm-2.52 6.419h-4.863v4.867h4.863zm-10.019 0h-5.032v4.867h5.032zM35.248.042H27.69v4.927h7.56V.042Zm17.618 0h-7.71v4.927h7.71zM32.721 25.793h-5.032v4.854h5.032zm5.037-19.267h-10.07v4.867h10.069V6.526Zm-5.037 6.424h-5.032v4.867h5.032zm27.737 6.419h-5.032v4.867h5.032zm7.486-6.419H55.426v4.867h12.518zm-7.486-6.424h-5.032v4.867h5.032zm12.545 19.267H55.426v4.854h17.577zM73.017.042H55.426v4.927h17.591zm25.085 25.751h-9.995v4.854h9.995zm.001-6.424h-4.9v4.867h4.9zm0-6.419h-4.9v4.867h4.9zm-10.01 0h-5.019v4.867h5.019zm2.542 6.419h-5.013v4.867h5.013zm7.468-12.843h-4.9v4.867h4.9zm-12.565 0h-9.913v4.867h9.913zm-5.014 19.267h-4.899v4.854h4.9v-4.854ZM83.047.042h-7.422v4.927h7.422zm15.056 0h-4.9v4.927h4.9zM80.524 12.95h-4.899v4.867h4.9v-4.868Zm0 6.419h-4.899v4.867h4.9v-4.867Zm37.74 0h-4.941v4.867h4.941zm-.004-6.419h-17.587v4.867h17.587zm-12.555-6.424h-5.032v4.867h5.032z"/><path fill="#B0E1F0" fill-rule="evenodd" d="M118.265 30.651v-4.858h-17.592v4.854zm.059-25.682V.047L100.673.042v4.927z" clip-rule="evenodd"/><path fill="#B0E1F0" d="M148.472 19.369h-4.954v4.867h4.954zm0-6.419h-4.954v4.867h4.954zm-15.133-6.424h-4.954v4.867h4.954zm15.133 0h-4.954v4.867h4.954zm-2.639 19.267h-14.986v4.854h14.986zm0-25.751h-14.986v4.927h14.986zM133.339 12.95h-4.954v4.867h4.954zm0 6.419h-4.954v4.867h4.954zm40.252 6.424h-9.954v4.854h9.954zm-.005-6.424h-4.899v4.867h4.899zm-10.06-6.419h-4.89v4.867h4.89zm10.06-6.424h-4.899v4.867h4.899zm-7.558 12.843h-4.926v4.867h4.926zm7.558-6.419h-4.899v4.867h4.899zm-17.579 12.843h-4.899v4.854h4.899zm5.014-19.267h-9.913v4.867h9.913zM158.53.042h-7.422v4.927h7.422zm15.056 0h-4.899v4.927h4.899zM156.007 12.95h-4.899v4.867h4.899zm0 6.419h-4.899v4.867h4.899zm37.727 0h-4.813v4.867h4.813zm0 6.424h-4.813v4.854h4.813zm-12.48-19.267h-5.105v4.867h5.105z"/><path fill="#B0E1F0" fill-rule="evenodd" d="M176.149 25.793v4.854l1.804.014h3.15v-4.868z" clip-rule="evenodd"/><path fill="#B0E1F0" d="M181.103 19.369h-4.954v4.867h4.954zm12.633-12.843h-4.808v4.867h4.808zM191.211.042h-12.385v4.927h12.385zm2.52 12.908h-17.582v4.867h17.582z"/><path fill="#B0E1F0" fill-rule="evenodd" d="m207.16 25.793-5.875.028v-.028h-4.917v4.867H213.9v-4.867z" clip-rule="evenodd"/><path fill="#B0E1F0" d="M201.285 6.526h-4.917v4.867h4.917z"/><path fill="#B0E1F0" fill-rule="evenodd" d="M201.285 4.969V.102l-4.917-.06v4.927z" clip-rule="evenodd"/><path fill="#B0E1F0" d="M201.285 19.369h-4.917v4.867h4.917zm0-6.419h-4.917v4.867h4.917z"/><path fill="#378CA7" d="M2.636 6.519h-.091v4.867h.091zm0-6.518h-.091v4.96h.091V0Zm0 19.365h-.091v4.867h.091zm0-6.425h-.091v4.868h.091V12.94Zm0 12.848h-.091v4.817h.091zM5.143.01H5.05v4.955h.092V.01Zm0 25.78H5.05v4.826h.092V25.79ZM7.668.016h-.092V4.96h.092zm0 25.772h-.092v4.83h.092zm4.976-12.847h-.046v4.867h.046zm0 6.425h-.046v4.867h.046zm0 6.423h-.092v4.844h.092zm0-25.76h-.092V4.96h.092V.03Zm0 6.488h-.046v4.867h.046zm2.551 6.424h-.091v4.867h.091zm0 6.425h-.091v4.867h.091zm0-12.848h-.091v4.867h.091zm7.555.001h-.092v4.867h.091zm0-6.479h-.092v4.926h.091V.039Zm0 25.749h-.092v4.853h.091zm0-12.848h-.092v4.868h.091V12.94Zm0 6.425h-.092v4.867h.091zM32.806 6.519h-.091v4.867h.091zm0-6.479h-.091v4.926h.091V.039Zm2.532 6.479h-.091v4.867h.091zm2.532 6.422h-.092v4.867h.091v-4.867Zm4.963 0h-.092v4.867h.092zm2.555-6.422h-.092v4.867h.092zm0-6.479h-.092v4.926h.092V.039Zm2.552 0h-.092v4.926h.092V.039Zm0 6.479h-.092v4.867h.092zm10.132 0h-.092v4.867h.092zm0 6.422h-.092v4.868h.092V12.94Zm0-12.901h-.092v4.926h.092V.039Zm0 19.326h-.092v4.867h.092zm0 6.423h-.092v4.853h.092zm4.898-12.848h-.092v4.868h.091V12.94Zm0-12.901h-.092v4.926h.091V.039Zm0 25.749h-.092v4.853h.091V25.79Zm2.518-12.848h-.092v4.868h.092V12.94Zm0-12.901h-.092v4.926h.092V.039Zm0 25.749h-.092v4.853h.092zM68.088.04h-.091v4.926h.091V.039Zm0 25.749h-.091v4.853h.091zm10.038-19.27h-.092v4.867h.092zm0-6.479h-.092v4.926h.092V.039Zm0 12.901h-.092v4.868h.092V12.94Zm0 12.848h-.092v4.853h.092zm0-6.423h-.092v4.867h.092zm4.971-6.425h-.027v4.868h.027V12.94Zm.002-6.422h-.092v4.867h.092zM83.044.04h-.037v4.926h.037V.039Zm2.555 12.901h-.092v4.867h.092zm-.069-6.423h-.023v4.867h.023zm2.591 19.271h-.018v4.853h.018zm-.006-6.423h-.092v4.867h.092zm-.027-6.425h-.065v4.867h.065zm5.062 12.847h-.092v4.854h.091v-4.854ZM95.707.04h-.092v4.926h.092V.039Zm0 25.749h-.092v4.853h.092zm0-19.27h-.092v4.867h.092zm0 12.847h-.092v4.867h.092zm0-6.425h-.092v4.868h.092V12.94ZM103.225.04h-.092v4.926h.092V.039Zm0 6.479h-.092v4.867h.092zm0 6.422h-.092v4.868h.092V12.94Zm0 12.848h-.092v4.853h.092zM105.786.04h-.092v4.92h.092zm-.078 6.479h-.014v4.867h.014zm.078 19.27h-.092v4.853h.092zm0-12.848h-.092v4.868h.092V12.94ZM108.258.04h-.091v4.92h.091zm0 25.749h-.091v4.853h.091zm0-12.848h-.091v4.868h.091V12.94ZM113.289.04h-.091v4.92h.091zm0 25.749h-.091v4.853h.091zm0-12.848h-.091v4.868h.091V12.94Zm2.529 6.425h-.091v4.867h.091zm0-19.326h-.091v4.92h.091zm0 25.749h-.091v4.858h.091zm0-12.848h-.091v4.868h.091V12.94Zm7.59-12.902h-.092v30.604h.092zm10.056 25.75h-.092v4.853h.092zm0-25.749h-.092v4.926h.092V.039Zm2.482 25.749h-.092v4.853h.092zm0-25.749h-.092v4.926h.092V.039Zm2.528 25.749h-.091v4.853h.091zm0-25.749h-.091v4.926h.091V.039Zm4.898 25.749h-.092v4.853h.092zm0-25.749h-.092v4.926h.092V.039Zm2.673 19.326h-.092v4.867h.092zm0-12.848h-.092v4.867h.092zm0 6.423h-.092v4.867h.092zm7.432 0h-.091v4.868h.091V12.94Zm0-6.422h-.091v4.867h.091zm0-6.479h-.091v4.926h.091V.039Zm0 25.749h-.091v4.853h.091zm0-6.423h-.091v4.867h.091zM156.137.04h-.092v4.926h.092V.039Zm0 6.479h-.092v4.867h.092zm2.487-.001h-.092v4.867h.092zm7.535 19.27h-.092v4.854h.092zm-2.541-6.423h-.092v4.868h.092zm4.927 6.423h-.091v4.854h.091zm10.249-19.27h-.092v4.867h.092zm0 6.423h-.092v4.867h.092zm0 12.848h-.092v4.867h.092zm0-6.423h-.092v4.867h.092zM183.737.04h-.091v4.926h.091V.039Zm0 12.901h-.091v4.868h.091V12.94ZM186.265.04h-.091v4.926h.091V.039Zm0 12.901h-.091v4.868h.091V12.94Zm2.643 0h-.092v4.868h.092V12.94Zm0-12.901h-.092v4.926h.092V.039Zm9.928.026h-.092V4.96h.092zm0 6.453h-.092v4.867h.092zm0 19.27h-.092v4.867h.092zm0-6.423h-.092v4.867h.092zm0-6.425h-.092v4.868h.092V12.94Zm5.074 12.862h-.092v4.85h.092zm2.492-.009h-.092v4.862h.092zm2.522-.006h-.092v4.868h.092z"/></g><defs><clipPath id="a"><path fill="#fff" d="M0 0h215.794v35.206H0z"/></clipPath></defs></svg>
